# xmcd
#
# Track frame offsets: 
#        182
#        19300
#        38770
#        57720
#        69730
#        86975
#        100375
#        122132
#        142507
#        161887
#        179662
#
# Disc length: 2680 seconds
#
# Revision: 4
# Processed by: cddbd v1.5.2PL0 Copyright (c) Steve Scherf et al.
# Submitted via: ExactAudioCopy v1.0b3
#
DISCID=a30a760b
DTITLE=谭咏麟 - 暴風女神Lorelei
DYEAR=1985
DGENRE=Pop
TTITLE0=暴風女神Lorelei
TTITLE1=世外情
TTITLE2=問
TTITLE3=楚河漢界
TTITLE4=你要等我
TTITLE5=命途戰士
TTITLE6=編織
TTITLE7=午夜騎士
TTITLE8=吻別
TTITLE9=冬之寒號
TTITLE10=朋友
EXTD=
EXTT0=
EXTT1=
EXTT2=
EXTT3=
EXTT4=
EXTT5=
EXTT6=
EXTT7=
EXTT8=
EXTT9=
EXTT10=
PLAYORDER=
